<svg width="660" height="464" viewBox="0 0 660 464" fill="none" xmlns="http://www.w3.org/2000/svg">
<g clip-path="url(#clip0_111_2)">
<rect width="660" height="464" rx="20" fill="url(#paint0_linear_111_2)"/>
<path d="M291 433C291 377.772 335.772 333 391 333H591C646.228 333 691 377.772 691 433V433C691 488.228 646.228 533 591 533H391C335.772 533 291 488.228 291 433V433Z" fill="url(#paint1_linear_111_2)"/>
<path d="M291 433C291 377.772 335.772 333 391 333H591C646.228 333 691 377.772 691 433V433C691 488.228 646.228 533 591 533H391C335.772 533 291 488.228 291 433V433Z" fill="url(#paint2_linear_111_2)" fill-opacity="0.5"/>
<path d="M660 150C604.772 150 560 194.772 560 250L560 450C560 505.228 604.772 550 660 550V550C715.228 550 760 505.228 760 450L760 250C760 194.772 715.228 150 660 150V150Z" fill="url(#paint3_linear_111_2)"/>
<path fill-rule="evenodd" clip-rule="evenodd" d="M74 180H69V175V105V100H74H119.526L140.579 121.053V175V180H135.579H74ZM135.579 175V123.158H117.422V105H74V175H135.579ZM83.8418 143.605C94.3155 157.57 115.263 157.57 125.737 143.605L121.737 140.605C113.263 151.903 96.3155 151.903 87.8418 140.605L83.8418 143.605Z" fill="url(#paint4_linear_111_2)"/>
<path d="M172 261C172 316.228 127.228 361 72 361L-128 361C-183.228 361 -228 316.228 -228 261V261C-228 205.772 -183.228 161 -128 161L72 161C127.228 161 172 205.772 172 261V261Z" fill="url(#paint5_linear_111_2)" fill-opacity="0.5"/>
<path fill-rule="evenodd" clip-rule="evenodd" d="M599.814 347.493C595.644 334.398 589.453 322.052 581.501 310.361C581.457 310.272 581.382 310.208 581.292 310.17C571.03 305.462 560.028 301.995 548.522 300.008C548.419 299.989 548.313 300.003 548.218 300.048C548.123 300.093 548.045 300.166 547.995 300.258C546.58 302.774 545.012 306.056 543.914 308.636C531.539 306.785 519.228 306.785 507.107 308.636C506.008 306 504.384 302.774 502.963 300.258C502.855 300.073 502.645 299.976 502.436 300.008C490.937 301.989 479.934 305.456 469.665 310.17C469.576 310.208 469.5 310.272 469.449 310.355C461.083 322.849 455.152 335.22 451.229 347.493H525.025L599.814 347.493ZM603.284 360.768C597.799 376.475 582.853 387.743 565.275 387.743C549.083 387.743 535.125 378.182 528.736 364.398H521.314C514.925 378.182 500.967 387.743 484.775 387.743C467.836 387.743 453.341 377.279 447.401 362.463C444.839 375.721 444.443 388.876 445.666 401.959C445.678 402.106 445.76 402.247 445.875 402.336C459.644 412.447 472.985 418.583 486.076 422.652C486.286 422.716 486.507 422.638 486.642 422.467C489.737 418.238 492.498 413.781 494.865 409.094C495.006 408.818 494.871 408.494 494.587 408.385C490.208 406.725 486.038 404.7 482.027 402.4C481.709 402.215 481.685 401.762 481.977 401.545C482.82 400.913 483.666 400.255 484.47 399.591C484.617 399.47 484.821 399.444 484.992 399.52C511.339 411.545 539.864 411.545 565.904 399.52C566.075 399.438 566.278 399.462 566.429 399.585C567.236 400.249 568.08 400.913 568.931 401.545C569.223 401.762 569.203 402.215 568.887 402.4C564.876 404.745 560.706 406.725 556.321 408.377C556.035 408.486 555.908 408.818 556.047 409.094C558.466 413.775 561.227 418.232 564.266 422.461C564.329 422.548 564.417 422.613 564.518 422.647C564.619 422.681 564.729 422.683 564.831 422.652C577.985 418.583 591.326 412.447 605.096 402.336C605.216 402.247 605.293 402.112 605.307 401.965C606.709 387.465 605.959 373.76 603.284 360.768ZM525.025 347.588C525.025 347.825 525.028 348.062 525.033 348.298H525.017C525.022 348.062 525.024 347.825 525.025 347.588Z" fill="url(#paint6_linear_111_2)"/>
</g>
<defs>
<linearGradient id="paint0_linear_111_2" x1="660" y1="0" x2="-1.84363e-05" y2="464" gradientUnits="userSpaceOnUse">
<stop stop-color="#22144C"/>
<stop offset="1" stop-color="#5464A6"/>
</linearGradient>
<linearGradient id="paint1_linear_111_2" x1="691" y1="333" x2="388.694" y2="631.83" gradientUnits="userSpaceOnUse">
<stop stop-color="#3B2775" stop-opacity="0.2"/>
<stop offset="1" stop-color="#8697DF" stop-opacity="0.5"/>
</linearGradient>
<linearGradient id="paint2_linear_111_2" x1="691" y1="333" x2="388.694" y2="631.83" gradientUnits="userSpaceOnUse">
<stop stop-color="#3B2775" stop-opacity="0.2"/>
<stop offset="1" stop-color="#8697DF" stop-opacity="0.5"/>
</linearGradient>
<linearGradient id="paint3_linear_111_2" x1="560" y1="550" x2="858.83" y2="247.694" gradientUnits="userSpaceOnUse">
<stop stop-color="#3B2775" stop-opacity="0.2"/>
<stop offset="1" stop-color="#8697DF" stop-opacity="0.5"/>
</linearGradient>
<linearGradient id="paint4_linear_111_2" x1="104.789" y1="100" x2="56.8992" y2="213.613" gradientUnits="userSpaceOnUse">
<stop stop-color="#8581CA"/>
<stop offset="1" stop-color="#8581CA" stop-opacity="0"/>
</linearGradient>
<linearGradient id="paint5_linear_111_2" x1="-228" y1="361" x2="74.3059" y2="62.1697" gradientUnits="userSpaceOnUse">
<stop stop-color="#3B2775" stop-opacity="0.2"/>
<stop offset="1" stop-color="#8697DF" stop-opacity="0.5"/>
</linearGradient>
<linearGradient id="paint6_linear_111_2" x1="606" y1="300" x2="436.673" y2="409.837" gradientUnits="userSpaceOnUse">
<stop stop-color="#BCFFF3"/>
<stop offset="1" stop-color="#36CBB0"/>
</linearGradient>
<clipPath id="clip0_111_2">
<rect width="660" height="464" rx="20" fill="white"/>
</clipPath>
</defs>
</svg>
